<?xml version="1.0" encoding="UTF-8"?>
<svg version="1.1" xmlns="http://www.w3.org/2000/svg" width="2501" height="2501">
<path d="M0 0 C3.31007287 -0.07500379 6.61952916 -0.12604337 9.93017578 -0.16748047 C11.3928186 -0.19974731 11.3928186 -0.19974731 12.88500977 -0.23266602 C18.55522186 -0.25928673 22.64782475 0.12568524 27.55517578 3.08251953 C31.91469126 8.17287305 32.12100379 12.14886902 32.03619385 18.53573608 C32.0413204 19.95225147 32.0413204 19.95225147 32.04655051 21.39738333 C32.05313222 24.55755001 32.03114802 27.71686486 32.00927734 30.87695312 C32.00814893 33.14381897 32.0087826 35.41068628 32.01104736 37.67755127 C32.01219567 43.8300203 31.98866702 49.98217782 31.96075153 56.13457441 C31.9357576 62.56476738 31.93339745 68.99496737 31.9286499 75.42520142 C31.91762741 86.2174483 31.89263746 97.00956736 31.85693359 107.80175781 C31.82020147 118.91633534 31.79189561 130.03088181 31.77490234 141.14550781 C31.77385145 141.83094045 31.77280056 142.5163731 31.77171782 143.22257642 C31.76649756 146.66128881 31.76144275 150.10000142 31.7564702 153.53871417 C31.7150226 182.05339463 31.64428889 210.56795095 31.55517578 239.08251953 C32.57952246 239.08138037 33.60386915 239.08024121 34.65925664 239.07906753 C79.79238704 239.02907269 124.92551974 238.98278769 170.05867004 238.95549011 C171.08321868 238.95486886 171.08321868 238.95486886 172.12846526 238.95423505 C186.97172656 238.94525684 201.81498817 238.93694622 216.65825022 238.92932354 C223.93712457 238.92558145 231.21599882 238.9216918 238.49487305 238.91772461 C239.21921796 238.91733233 239.94356287 238.91694006 240.68985763 238.91653589 C264.17829787 238.90374627 287.66671651 238.88120819 311.15514365 238.85362787 C335.28763083 238.82534268 359.42010604 238.80686612 383.55260952 238.80077456 C386.95924513 238.79991007 390.36588069 238.79893315 393.77251625 238.7978878 C394.44300712 238.79768553 395.11349799 238.79748326 395.80430676 238.79727487 C406.60799762 238.79372634 417.41165153 238.77980309 428.2153273 238.76202343 C439.07023235 238.74438002 449.92509893 238.73785429 460.78001764 238.7420154 C466.6640789 238.74394321 472.54803149 238.74091925 478.43207359 238.72490311 C483.81403986 238.71036002 489.19582383 238.70953068 494.57779828 238.71982285 C496.52942577 238.72109587 498.48106439 238.71724311 500.43266978 238.70786998 C503.07717612 238.69590295 505.72101667 238.70227531 508.36551189 238.71337605 C509.13048436 238.705495 509.89545684 238.69761396 510.68361029 238.6894941 C515.155416 238.73217036 517.99564462 239.33219326 521.55517578 242.08251953 C524.3181284 245.68243321 524.93822193 248.32408599 524.95361328 252.81689453 C524.95981689 253.93555908 524.96602051 255.05422363 524.97241211 256.20678711 C524.95847412 257.40327881 524.94453613 258.59977051 524.93017578 259.83251953 C524.92074951 261.07735107 524.91132324 262.32218262 524.90161133 263.60473633 C524.45861439 291.42882659 521.68010482 331.73339266 501.47314453 353.30517578 C495.7198201 358.5034485 491.70646206 360.38514611 483.87899399 360.32861519 C483.09772672 360.33092288 482.31645944 360.33323057 481.51151741 360.33560818 C478.87785323 360.34092726 476.24443065 360.3319083 473.61077881 360.32302856 C471.70991784 360.32390024 469.8090571 360.32565052 467.90819764 360.3282069 C462.67248051 360.33269188 457.43684477 360.32466096 452.20113802 360.31465077 C446.55971048 360.30603512 440.91828774 360.3089351 435.27685547 360.31045532 C425.49860288 360.31150537 415.72037693 360.30521627 405.94213104 360.29397964 C391.80433216 360.27774382 377.6665462 360.2725186 363.52873901 360.27000366 C340.59255572 360.26562354 317.6563898 360.25232301 294.72021484 360.23339844 C272.43636143 360.2150333 250.15251181 360.20086425 227.86865234 360.19238281 C227.18191273 360.19211976 226.49517311 360.19185671 225.78762321 360.19158568 C218.89117775 360.18894867 211.99473226 360.18639704 205.09828675 360.18390797 C147.25057089 360.16302149 89.40287994 360.12606442 31.55517578 360.08251953 C31.55517578 412.55251953 31.55517578 465.02251953 31.55517578 519.08251953 C55.54978516 519.03611328 79.54439453 518.98970703 104.26611328 518.94189453 C119.44189568 518.92146316 134.61766965 518.90201807 149.79345703 518.88720703 C157.76432325 518.87937564 165.73518915 518.87129374 173.70605469 518.86279297 C175.20456488 518.86121048 175.20456488 518.86121048 176.73334801 518.85959601 C192.85781369 518.84220269 208.98222227 518.81066957 225.10665409 518.77390835 C241.65686044 518.73649135 258.2070369 518.71428207 274.75728381 518.70616555 C284.96822233 518.70067936 295.17899951 518.68335679 305.38988836 518.65085366 C312.39356756 518.62969643 319.39716344 518.62332223 326.40087228 518.62851402 C330.44060333 518.63107392 334.48005258 518.62717254 338.51973343 518.60569763 C342.22248542 518.58615808 345.92476749 518.585297 349.62754162 518.59892395 C351.59257059 518.60140048 353.55759446 518.58421496 355.52254236 518.5661943 C364.05016229 518.62358626 371.34988102 519.74836631 378.17626953 525.16064453 C379.07539063 526.23572266 379.07539063 526.23572266 379.99267578 527.33251953 C380.61013672 528.03892578 381.22759766 528.74533203 381.86376953 529.47314453 C386.71263573 536.95361248 387.00448252 543.57657291 386.86767578 552.27001953 C386.85075684 554.08904785 386.85075684 554.08904785 386.83349609 555.94482422 C386.21247857 599.27441531 381.72630152 642.36999607 374.55517578 685.08251953 C374.41893799 685.89901978 374.2827002 686.71552002 374.14233398 687.5567627 C366.62431434 732.37845867 355.49912354 776.72629601 341.2779541 819.88739014 C340.55724189 822.07624462 339.84242127 824.26695685 339.12841797 826.45800781 C327.11538583 863.19829808 312.71536653 898.98089962 296.55517578 934.08251953 C296.22046265 934.81168579 295.88574951 935.54085205 295.54089355 936.29211426 C283.222844 963.12179816 270.05700126 989.36613778 255.33691406 1014.97363281 C253.70584687 1017.81961933 252.08509949 1020.67109864 250.46899414 1023.52558899 C249.03839384 1026.05220913 247.60480958 1028.57712952 246.1708374 1031.10183716 C245.48016211 1032.31881462 244.79039218 1033.53630644 244.10162354 1034.75436401 C240.51496438 1041.09257662 236.87527259 1047.31154511 232.69946289 1053.28222656 C231.38488402 1055.19003459 231.38488402 1055.19003459 230.55517578 1058.08251953 C231.71146484 1058.43443359 232.86775391 1058.78634766 234.05908203 1059.14892578 C240.61233453 1061.3375824 246.87118705 1064.21142424 253.18331909 1067.00192261 C292.33006917 1084.26005602 332.27945168 1099.67552373 372.55517578 1114.08251953 C373.79666382 1114.52664185 373.79666382 1114.52664185 375.06323242 1114.97973633 C415.27982669 1129.3298673 456.19683916 1141.49077602 497.55517578 1152.08251953 C498.32998291 1152.28169983 499.10479004 1152.48088013 499.90307617 1152.68609619 C588.10077057 1175.33101008 677.79519591 1186.65330372 768.60180664 1191.34399414 C770.12793226 1191.42605899 771.65405547 1191.50816866 773.18017578 1191.59033203 C774.48341797 1191.65752441 775.78666016 1191.7247168 777.12939453 1191.79394531 C788.21971747 1192.72815011 798.35223664 1197.89488612 805.95751953 1206.03955078 C818.59524669 1222.19977401 815.86900686 1240.96878634 814.36767578 1260.14501953 C814.30270905 1260.98411865 814.23774231 1261.82321777 814.17080688 1262.68774414 C808.89027238 1329.80015812 797.58145806 1408.70216643 751.55517578 1461.08251953 C750.83716797 1461.92169922 750.11916016 1462.76087891 749.37939453 1463.62548828 C728.32060369 1487.75145647 699.87814149 1502.71777477 667.79199219 1504.95800781 C586.12468547 1509.50399411 502.99979126 1483.76692035 383.55517578 1431.08251953 C382.78608887 1430.70289063 382.01700195 1430.32326172 381.22460938 1429.93212891 C378.03346388 1428.35278744 374.84961144 1426.75993573 371.67236328 1425.15283203 C368.48080417 1423.54023794 365.27409422 1421.96050681 362.06298828 1420.38720703 C348.85909248 1413.89359381 336.01424634 1406.93884542 323.25439453 1399.61572266 C319.92796017 1397.72625017 316.57152427 1395.89652966 313.20849609 1394.07324219 C300.85143354 1387.37251078 288.78465349 1380.19415448 276.72460938 1372.97802734 C273.89630596 1371.28653545 271.0644955 1369.60115794 268.23095703 1367.91845703 C255.21449235 1360.172004 242.37325989 1352.15202092 229.55517578 1344.08251953 C228.71067871 1343.55126465 227.86618164 1343.02000977 226.99609375 1342.47265625 C222.3021578 1339.51841091 217.61440601 1336.55456773 212.93017578 1333.58496094 C210.50632305 1332.05161496 208.07787653 1330.52574332 205.64892578 1329.00048828 C192.8093122 1320.91172678 180.1676644 1312.54411016 167.578125 1304.07324219 C161.08142378 1299.71017958 154.55533264 1295.42654208 147.89501953 1291.31689453 C137.73185404 1285.0335081 127.87913159 1278.28925183 117.99267578 1271.58251953 C116.12111437 1270.31532157 114.24937031 1269.04839332 112.37744141 1267.78173828 C111.46137115 1267.16177979 110.5453009 1266.54182129 109.60147095 1265.90307617 C106.92000846 1264.08931006 104.2373739 1262.27728719 101.5546875 1260.46533203 C98.35593669 1258.30445542 95.16531772 1256.13243571 91.98144531 1253.94970703 C90.62200316 1253.02508728 89.26247173 1252.10059876 87.90283203 1251.17626953 C87.29491318 1250.75502808 86.68699432 1250.33378662 86.06065369 1249.89978027 C82.63111294 1247.56242704 82.63111294 1247.56242704 78.55517578 1247.08251953 C76.6831838 1248.55424849 76.6831838 1248.55424849 74.82470703 1250.55517578 C73.74286133 1251.65829102 73.74286133 1251.65829102 72.63916016 1252.78369141 C71.51477539 1253.95254883 71.51477539 1253.95254883 70.36767578 1255.14501953 C65.53573273 1260.12196352 60.68629882 1264.95368654 55.41967773 1269.47192383 C52.62092736 1271.88954282 49.93950602 1274.42761768 47.24267578 1276.95751953 C42.37411828 1281.49153647 37.36185414 1285.76744734 32.17236328 1289.93408203 C29.53675965 1292.09763725 27.01094203 1294.34641513 24.49267578 1296.64501953 C19.68026653 1301.01925023 14.67317703 1305.07329617 9.55517578 1309.08251953 C8.06824219 1310.26201172 8.06824219 1310.26201172 6.55126953 1311.46533203 C2.90127784 1314.35754951 -0.76829992 1317.22412754 -4.44482422 1320.08251953 C-5.22825195 1320.69192383 -6.01167969 1321.30132813 -6.81884766 1321.92919922 C-17.68425823 1330.3567227 -28.68966395 1338.45524217 -40.09716797 1346.13330078 C-43.94155057 1348.7232976 -47.6992931 1351.41507727 -51.44482422 1354.14501953 C-59.84559841 1360.20852573 -68.63049423 1365.64575613 -77.44482422 1371.08251953 C-78.48477539 1371.72640625 -79.52472656 1372.37029297 -80.59619141 1373.03369141 C-148.85764979 1415.21572094 -222.10826073 1449.13034739 -658.60986328 1492.10986328 C-736.31076424 1473.48729627 -813.77908913 1433.89760845 -866.42138672 1372.44189453 C-867.96165608 1370.64590478 -869.52280767 1368.86780071 -871.09326172 1367.09814453 C-929.50243898 1300.88543078 -955.1681445 1214.00019512 -950.21777344 1126.69433594 C-944.99226008 1051.81374335 -912.86486676 982.11563178 -862.44482422 927.08251953 C-861.51852218 926.0517373 -860.59276593 925.0204644 -859.66748047 923.98876953 C-852.6567119 916.21976476 -845.28442296 909.01169792 -837.44482422 902.08251953 C-836.69410645 901.41470459 -836.69410645 901.41470459 -835.92822266 900.73339844 C-771.44354088 843.7022506 -687.28518172 812.11918907 -602.44482422 802.77001953 C-601.33699585 802.64791611 -601.33699585 802.64791611 -600.20678711 802.52334595 C-595.29053118 801.99050401 -590.37091845 801.51464232 -585.44482422 801.08251953 C-584.25469727 800.97721924 -583.06457031 800.87191895 -581.83837891 800.76342773 C-568.14829818 799.73584962 -554.415071 799.88359912 -540.69482422 799.89501953 C-539.69639307 799.89541985 -539.69639307 799.89541985 -538.6777916 799.89582825 C-516.87233361 799.90679796 -495.1805344 800.27055777 -473.44482422 802.08251953 C-472.66907043 802.14568359 -471.89331665 802.20884766 -471.09405518 802.27392578 C-415.3599265 806.82854875 -360.63497808 816.35397456 -306.44482422 830.08251953 C-305.64923096 830.28383484 -304.8536377 830.48515015 -304.03393555 830.69256592 C-278.52404158 837.17012986 -253.44287299 844.86278981 -228.44482422 853.08251953 C-227.69668457 853.32746155 -226.94854492 853.57240356 -226.17773438 853.82476807 C-186.19247523 866.92027476 -147.05383827 882.389776 -108.44482422 899.08251953 C-107.0817453 899.67017643 -105.71862765 900.25774349 -104.35546875 900.84521484 C-73.12541591 914.319616 -41.9734865 928.07857992 -11.44482422 943.08251953 C-11.03756104 941.78713257 -11.03756104 941.78713257 -10.62207031 940.46557617 C-9.47261004 937.16236775 -8.12185082 934.1051746 -6.60888672 930.95361328 C-6.04548584 929.76936768 -5.48208496 928.58512207 -4.90161133 927.36499023 C-4.60334442 926.73984528 -4.30507751 926.11470032 -3.99777222 925.47061157 C32.15820213 849.46898655 55.7286536 767.80333116 72.76220703 660.32861328 C73.03599696 658.44475786 73.30996277 656.560928 73.58410645 654.67712402 C74.24314423 650.14587927 74.89984747 645.61430218 75.55517578 641.08251953 C74.99719536 641.08314345 74.43921494 641.08376738 73.86432603 641.08441021 C13.12978118 641.15218053 -47.60476785 641.21500429 -108.33934021 641.25189209 C-109.69969708 641.25272043 -109.69969708 641.25272043 -111.0875359 641.25356551 C-130.79593979 641.26553651 -150.50434408 641.27661733 -170.21274898 641.28678085 C-179.87742845 641.29177029 -189.5421078 641.2969565 -199.20678711 641.30224609 C-200.64943218 641.30303065 -200.64943218 641.30303065 -202.1212216 641.30383105 C-233.30747391 641.32088334 -264.49369728 641.35093372 -295.67993205 641.38770841 C-327.72177541 641.42542351 -359.76360275 641.45005776 -391.80546794 641.45817949 C-396.32880237 641.45933215 -400.85213675 641.4606347 -405.37547112 641.4620285 C-406.26574806 641.4622982 -407.15602501 641.46256789 -408.07328005 641.46284575 C-422.41738637 641.46757679 -436.7614432 641.48614026 -451.10552932 641.50984767 C-465.5182498 641.53337436 -479.93092111 641.54239704 -494.34366012 641.53652504 C-502.91168352 641.5334775 -511.47952728 641.54164011 -520.04751832 641.5657097 C-525.76764616 641.5806843 -531.48765607 641.58119187 -537.20779199 641.56984679 C-540.46925033 641.56379495 -543.73029872 641.5663166 -546.99173469 641.58205226 C-550.50342581 641.59801586 -554.01422639 641.58950714 -557.52590275 641.57471085 C-559.0481168 641.59047293 -559.0481168 641.59047293 -560.60108265 641.60655344 C-566.74681003 641.54771027 -570.43972923 640.7307549 -575.44482422 637.08251953 C-578.58371484 632.58195131 -578.88808649 628.42059191 -578.75732422 623.08251953 C-578.74604492 622.30416748 -578.73476563 621.52581543 -578.72314453 620.72387695 C-578.02688336 589.78606148 -574.87206932 549.01566023 -553.47607422 524.66064453 C-545.94450106 518.80919154 -539.48667371 518.51397299 -530.22045898 518.60150146 C-528.88124071 518.59975522 -527.54202378 518.59624932 -526.2028141 518.5911448 C-522.53800376 518.5822313 -518.87366399 518.59815794 -515.20891356 518.61825705 C-511.25128092 518.6355703 -507.29367367 518.62968261 -503.33601379 518.62664795 C-496.48417908 518.62455303 -489.63249701 518.63707697 -482.78070068 518.6595993 C-472.87424398 518.69214128 -462.9678609 518.70252857 -453.06135654 518.70755127 C-436.98780265 518.71630047 -420.91433007 518.74290589 -404.84082031 518.78076172 C-389.22917073 518.8174915 -373.61754337 518.84575265 -358.00585938 518.86279297 C-357.03334988 518.86386496 -356.06084038 518.86493695 -355.0588609 518.86604142 C-347.4529213 518.87435937 -339.84698122 518.88218698 -332.24104095 518.88985968 C-294.97556073 518.92757775 -257.71028412 519.0080548 -220.44482422 519.08251953 C-220.44482422 466.61251953 -220.44482422 414.14251953 -220.44482422 360.08251953 C-235.14102295 360.09822998 -249.83722168 360.11394043 -264.97875977 360.13012695 C-296.39728045 360.16230261 -327.81579801 360.19058543 -359.23432922 360.20954895 C-360.26099246 360.21017021 -360.26099246 360.21017021 -361.30839638 360.21080401 C-376.18229088 360.21978223 -391.05618568 360.22809284 -405.93008093 360.23571552 C-413.22397655 360.23945761 -420.51787208 360.24334726 -427.81176758 360.24731445 C-428.90052721 360.24790287 -428.90052721 360.24790287 -430.01128198 360.24850317 C-453.54822402 360.26129281 -477.08514448 360.2838309 -500.62207344 360.31141119 C-524.80437887 360.33969634 -548.98667236 360.35817293 -573.16899406 360.3642645 C-576.58265696 360.365129 -579.99631983 360.36610591 -583.40998268 360.36715126 C-584.41779371 360.36745466 -584.41779371 360.36745466 -585.44596456 360.3677642 C-596.27197137 360.37131273 -607.09794132 360.38523601 -617.92393309 360.40301563 C-628.80124226 360.42065898 -639.67851305 360.42718479 -650.55583587 360.42302366 C-656.45204864 360.42109585 -662.34815296 360.42411991 -668.24434662 360.44013596 C-673.6374153 360.45467892 -679.03030206 360.45550847 -684.42337892 360.44521622 C-686.37904406 360.44394318 -688.33472031 360.44779604 -690.29036339 360.45716908 C-692.9403151 360.46913589 -695.58960235 360.46276389 -698.23954296 360.45166302 C-699.00611978 360.45954406 -699.77269659 360.4674251 -700.56250301 360.47554496 C-705.03783082 360.43292158 -707.88329963 359.83711575 -711.44482422 357.08251953 C-714.14194014 353.54775794 -714.82749955 350.97279675 -714.84326172 346.56689453 C-714.84946533 345.49342773 -714.85566895 344.41996094 -714.86206055 343.31396484 C-714.84812256 342.16508789 -714.83418457 341.01621094 -714.81982422 339.83251953 C-714.81039795 338.6346582 -714.80097168 337.43679688 -714.79125977 336.20263672 C-714.29514411 306.13526062 -710.31513748 268.6338727 -690.22998047 244.61767578 C-684.89254389 240.02771391 -680.35841688 238.48870958 -673.38388157 238.59032822 C-672.59746439 238.58571284 -671.81104721 238.58109746 -671.00079921 238.57634223 C-668.36742274 238.5657602 -665.73502596 238.58369311 -663.10169983 238.60150146 C-661.19412315 238.59975694 -659.2865474 238.59625422 -657.37897676 238.5911448 C-652.1385439 238.58219767 -646.89843783 238.59820502 -641.6580466 238.61825705 C-636.00644687 238.63552132 -630.35486575 238.62968606 -624.70324707 238.62664795 C-614.91191805 238.62454994 -605.1206956 238.63710629 -595.32939339 238.6595993 C-581.17280884 238.69209928 -567.01627586 238.70252428 -552.85965806 238.70755127 C-529.89183839 238.71630706 -506.92408595 238.742896 -483.95629883 238.78076172 C-461.64445287 238.81750354 -439.33262211 238.84583599 -417.02075195 238.86279297 C-416.33291286 238.86331907 -415.64507377 238.86384518 -414.93639107 238.86438723 C-408.02878115 238.86966134 -401.12117112 238.87476459 -394.21356099 238.87974266 C-336.2906102 238.92150171 -278.36771865 238.99208199 -220.44482422 239.08251953 C-220.4475896 238.07785566 -220.4475896 238.07785566 -220.45041084 237.05289555 C-220.49476809 220.68200153 -220.52776686 204.31112679 -220.54844856 187.9401865 C-220.55871841 180.02300914 -220.57269562 172.10587214 -220.59570312 164.1887207 C-220.61576954 157.28028249 -220.62857175 150.37187353 -220.63300121 143.46340698 C-220.63558639 139.81256384 -220.64157071 136.16180431 -220.65628433 132.51098824 C-220.78126882 100.19478153 -218.93241544 72.2312668 -195.98779297 47.42626953 C-147.98609753 0.82554523 -62.49877958 1.4971359 0 0 Z M-725.44482422 994.08251953 C-726.11626465 994.40043457 -726.78770508 994.71834961 -727.47949219 995.04589844 C-750.39034465 1005.94029897 -771.05675957 1019.55371024 -789.44482422 1037.08251953 C-790.87524974 1038.31991185 -792.31202495 1039.55003307 -793.75732422 1040.77001953 C-823.45905451 1066.57293504 -840.39491114 1106.41357324 -843.30419922 1145.01123047 C-845.99365113 1184.62461591 -831.29013341 1224.25794211 -805.83935547 1254.34423828 C-804.6540625 1255.6996875 -804.6540625 1255.6996875 -803.44482422 1257.08251953 C-803.00444824 1257.58992676 -802.56407227 1258.09733398 -802.11035156 1258.62011719 C-753.17993918 1314.6305475 -675.0539568 1337.45334485 -603.20996094 1342.30078125 C-516.21982064 1347.39400736 -428.53653623 1327.07501881 -350.44482422 1289.08251953 C-349.31536377 1288.536521 -349.31536377 1288.536521 -348.16308594 1287.97949219 C-344.27537312 1286.09306477 -340.41686564 1284.15610313 -336.57568359 1282.17675781 C-334.13672199 1280.92430296 -331.68884554 1279.68999642 -329.24169922 1278.45361328 C-305.96527799 1266.60189447 -283.96909502 1252.85546623 -262.44482422 1238.08251953 C-261.76419922 1237.61539551 -261.08357422 1237.14827148 -260.38232422 1236.66699219 C-245.24394484 1226.20633941 -230.51405152 1214.94055856 -216.44482422 1203.08251953 C-215.38109673 1202.1931074 -214.31728992 1201.30379012 -213.25341797 1200.41455078 C-207.29762453 1195.42006761 -201.43958718 1190.33864194 -195.68701172 1185.10986328 C-193.73273997 1183.34284754 -191.75422684 1181.61338424 -189.75732422 1179.89501953 C-178.74832102 1170.25399898 -168.30067449 1160.03952566 -157.94482422 1149.70751953 C-157.42654053 1149.19182404 -156.90825684 1148.67612854 -156.37426758 1148.14480591 C-151.076057 1142.86747839 -145.86066034 1137.56520005 -140.99609375 1131.87890625 C-139.43990172 1130.07681922 -137.83743902 1128.33273061 -136.20654297 1126.59814453 C-135.69671875 1126.05544922 -135.18689453 1125.51275391 -134.66162109 1124.95361328 C-133.62509084 1123.85486473 -132.58594134 1122.75858229 -131.54443359 1121.66455078 C-128.98691626 1118.93347593 -127.0109658 1116.47088986 -125.44482422 1113.08251953 C-139.6183449 1104.45607964 -153.95688526 1096.16839502 -168.44482422 1088.08251953 C-170.08620361 1087.16212891 -170.08620361 1087.16212891 -171.76074219 1086.22314453 C-189.86998659 1076.07681201 -208.1882961 1066.3926924 -226.69482422 1056.99121094 C-230.00377104 1055.30958236 -233.30312254 1053.60984164 -236.60107422 1051.90673828 C-252.81435569 1043.59422561 -269.44753737 1036.25413692 -286.13916016 1028.96630859 C-288.82315276 1027.7940395 -291.50400984 1026.61532008 -294.18017578 1025.42529297 C-370.4837668 991.50540704 -451.80830401 969.40744171 -569.44482422 961.83251953 C-570.45205536 961.83184479 -571.4592865 961.83117004 -572.49703979 961.83047485 C-625.0663005 961.88602569 -677.79585792 971.20322506 -725.44482422 994.08251953 Z " fill="#1576FF" transform="translate(1318.44482421875,497.91748046875)"/>
<path d="M0 0 C0.66562077 0.00026688 1.33124153 0.00053375 2.01703262 0.00080872 C23.82249061 0.01177843 45.51428982 0.37553824 67.25 2.1875 C68.02575378 2.25066406 68.80150757 2.31382813 69.60076904 2.37890625 C125.33489772 6.93352922 180.05984614 16.45895503 234.25 30.1875 C235.04559326 30.38881531 235.84118652 30.59013062 236.66088867 30.79754639 C262.17078264 37.27511033 287.25195123 44.96777028 312.25 53.1875 C313.37220947 53.55491302 313.37220947 53.55491302 314.51708984 53.92974854 C354.50234898 67.02525523 393.64098595 82.49475647 432.25 99.1875 C433.61307892 99.7751569 434.97619657 100.36272396 436.33935547 100.95019531 C456.76249385 109.7618858 477.07786786 118.82747835 497.32089233 128.04481506 C500.95038473 129.69635543 504.58209153 131.34063491 508.23193359 132.94677734 C522.11875377 139.06401426 532.83169246 145.11056382 543.25 156.1875 C544.58488465 157.39663464 545.93629013 158.5881179 547.3125 159.75 C556.35116322 167.57967005 564.95591957 175.81439564 573.35864258 184.31762695 C576.33472944 187.31716406 579.32938313 190.21116137 582.5625 192.9375 C586.23551093 196.05609419 589.31483564 199.56112835 592.4921875 203.17578125 C596.59525333 207.74189392 601.02305751 212.00389171 605.40234375 216.30249023 C609.29207302 220.14283069 612.97228991 224.0864101 616.53955078 228.22753906 C619.31104801 231.40332835 622.22577626 234.44129047 625.125 237.5 C629.97437206 242.65094039 634.5612663 247.91388195 638.9765625 253.4453125 C641.62343839 256.637936 644.41587706 259.66169084 647.25 262.6875 C651.67422504 267.41725014 655.85729855 272.26766426 659.9140625 277.3203125 C662.58873806 280.60327548 665.35186487 283.80033049 668.125 287 C672.63541855 292.2186779 676.94839464 297.55724359 681.17529297 303.00708008 C684.27264038 306.98580911 687.47011012 310.85824891 690.75 314.6875 C695.47146144 320.20647168 699.9787574 325.8684096 704.44140625 331.59765625 C707.29822102 335.26241863 710.21045894 338.88111152 713.125 342.5 C717.96175858 348.51536561 722.65577945 354.62981469 727.3215332 360.77832031 C731.05838037 365.68213226 734.89946386 370.48597348 738.8125 375.25 C743.62279775 381.10767228 748.21607633 387.09042365 752.72631836 393.18115234 C756.84361958 398.71286604 761.15863809 404.0626566 765.53076172 409.39404297 C768.8802002 413.48400014 772.16606975 417.61141501 775.375 421.8125 C783.81305429 432.85942131 792.46220451 443.72238202 801.24609375 454.49609375 C803.68116179 457.48393058 806.09737413 460.48597033 808.5 463.5 C814.92931275 471.55341889 821.4832715 479.49446247 828.15893555 487.34423828 C831.10921686 490.81934662 834.00642669 494.33176224 836.875 497.875 C840.44525869 502.26476647 844.17882505 506.46577693 847.9921875 510.64453125 C850.37232313 513.32527224 852.62731841 516.08254134 854.875 518.875 C857.89804398 522.61181825 861.00414458 526.07700524 864.46728516 529.40527344 C866.24313042 531.18063231 867.88542908 533.01914282 869.5234375 534.921875 C879.6018011 546.51212565 890.40664767 557.44278019 901.25 568.3125 C901.98234863 569.04873093 901.98234863 569.04873093 902.72949219 569.79983521 C907.83239691 574.92410941 912.97047006 579.93824775 918.46240234 584.64501953 C921.23635985 587.0386092 923.89047335 589.55655294 926.5625 592.0625 C931.32474317 596.48767844 936.18748056 600.72085996 941.26171875 604.7890625 C943.49054609 606.57795137 945.69769621 608.38356241 947.89453125 610.2109375 C957.35002417 618.04633039 967.10742485 625.26869284 977.25 632.1875 C978.32870361 632.92782471 978.32870361 632.92782471 979.42919922 633.68310547 C1023.04209175 663.53884589 1070.35052895 685.3751102 1122.25 696.1875 C1123.18070313 696.38182617 1124.11140625 696.57615234 1125.0703125 696.77636719 C1144.25262651 700.64660167 1163.76465038 701.81822511 1183.25 703.1875 C1183.25 703.5175 1183.25 703.8475 1183.25 704.1875 C1171.79104701 704.39724617 1160.63076683 703.89506012 1149.25 702.5625 C1148.48131592 702.47447113 1147.71263184 702.38644226 1146.9206543 702.29574585 C1070.34433066 693.44530959 998.12999805 666.46064825 892.90039062 615.60839844 C889.84129054 613.96838716 886.77238529 612.34747707 883.703125 610.7265625 C869.28327596 603.08847386 855.10012528 595.12635913 841.04785156 586.82666016 C837.47828452 584.73537978 833.8820955 582.69343357 830.28173828 580.65576172 C809.89852693 569.11947026 790.07292347 556.65407061 770.25 544.1875 C768.98978027 543.39496826 768.98978027 543.39496826 767.70410156 542.58642578 C763.00574637 539.6292928 758.31368799 536.66237423 753.625 533.68994141 C751.20114727 532.15659543 748.77270075 530.63072379 746.34375 529.10546875 C733.50413642 521.01670725 720.86248862 512.64909063 708.27294922 504.17822266 C701.77624799 499.81516005 695.25015686 495.53152255 688.58984375 491.421875 C678.42667826 485.13848857 668.57395581 478.3942323 658.6875 471.6875 C656.81593859 470.42030204 654.94419453 469.15337379 653.07226562 467.88671875 C652.15619537 467.26676025 651.24012512 466.64680176 650.29629517 466.00805664 C647.61483268 464.19429053 644.93219812 462.38226766 642.24951172 460.5703125 C639.05076091 458.40943588 635.86014194 456.23741618 632.67626953 454.0546875 C631.31682738 453.13006775 629.95729595 452.20557923 628.59765625 451.28125 C627.9897374 450.86000854 627.38181854 450.43876709 626.75547791 450.00476074 C623.32593716 447.66740751 623.32593716 447.66740751 619.25 447.1875 C617.37800802 448.65922896 617.37800802 448.65922896 615.51953125 450.66015625 C614.79830078 451.39556641 614.07707031 452.13097656 613.33398438 452.88867188 C612.58439453 453.66791016 611.83480469 454.44714844 611.0625 455.25 C606.23055695 460.22694399 601.38112304 465.05866701 596.11450195 469.5769043 C593.31575158 471.99452329 590.63433024 474.53259814 587.9375 477.0625 C583.0689425 481.59651694 578.05667836 485.87242781 572.8671875 490.0390625 C570.23158387 492.20261772 567.70576625 494.4513956 565.1875 496.75 C560.37509075 501.1242307 555.36800125 505.17827664 550.25 509.1875 C549.25871094 509.97382812 548.26742187 510.76015625 547.24609375 511.5703125 C543.59610206 514.46252998 539.9265243 517.32910801 536.25 520.1875 C535.46657227 520.7969043 534.68314453 521.40630859 533.87597656 522.03417969 C523.01056599 530.46170317 512.00516027 538.56022264 500.59765625 546.23828125 C496.75327365 548.82827807 492.99553112 551.52005774 489.25 554.25 C480.84922581 560.31350619 472.06432999 565.7507366 463.25 571.1875 C462.21004883 571.83138672 461.17009766 572.47527344 460.09863281 573.13867188 C391.83717443 615.32070141 318.58656348 649.23532786 -117.91503906 692.21484375 C-195.61594002 673.59227674 -273.08426492 634.00258892 -325.7265625 572.546875 C-327.26683186 570.75088525 -328.82798346 568.97278118 -330.3984375 567.203125 C-388.80761476 500.99041125 -414.47332028 414.10517559 -409.52294922 326.79931641 C-404.29743587 251.91872382 -372.17004254 182.22061225 -321.75 127.1875 C-320.82369796 126.15671777 -319.89794171 125.12544487 -318.97265625 124.09375 C-311.96188768 116.32474523 -304.58959874 109.11667839 -296.75 102.1875 C-295.99928223 101.51968506 -295.99928223 101.51968506 -295.23339844 100.83837891 C-230.74871666 43.80723107 -146.5903575 12.22416953 -61.75 2.875 C-61.01144775 2.79359772 -60.27289551 2.71219543 -59.51196289 2.62832642 C-54.59570696 2.09548448 -49.67609423 1.61962279 -44.75 1.1875 C-43.55987305 1.08219971 -42.36974609 0.97689941 -41.14355469 0.8684082 C-27.45347396 -0.15916991 -13.72024678 -0.01142041 0 0 Z M-184.75 194.1875 C-185.42144043 194.50541504 -186.09288086 194.82333008 -186.78466797 195.15087891 C-209.69552044 206.04527944 -230.36193535 219.65869071 -248.75 237.1875 C-250.18042553 238.42489232 -251.61720073 239.65501354 -253.0625 240.875 C-282.76423029 266.67791551 -299.70008692 306.51855371 -302.609375 345.11621094 C-305.29882691 384.72959637 -290.59530919 424.36292258 -265.14453125 454.44921875 C-263.95923828 455.80466797 -263.95923828 455.80466797 -262.75 457.1875 C-262.30962402 457.69490723 -261.86924805 458.20231445 -261.41552734 458.72509766 C-212.48511496 514.73552797 -134.35913258 537.55832532 -62.51513672 542.40576172 C24.47500358 547.49898782 112.15828799 527.17999927 190.25 489.1875 C191.37946045 488.64150146 191.37946045 488.64150146 192.53173828 488.08447266 C196.4194511 486.19804523 200.27795858 484.26108359 204.11914062 482.28173828 C206.55810223 481.02928343 209.00597867 479.79497688 211.453125 478.55859375 C234.72954623 466.70687494 256.7257292 452.9604467 278.25 438.1875 C278.930625 437.72037598 279.61125 437.25325195 280.3125 436.77197266 C295.45087938 426.31131988 310.1807727 415.04553903 324.25 403.1875 C325.31372749 402.29808786 326.3775343 401.40877059 327.44140625 400.51953125 C333.39719969 395.52504808 339.25523704 390.44362241 345.0078125 385.21484375 C346.96208424 383.44782801 348.94059737 381.71836471 350.9375 380 C361.9465032 370.35897945 372.39414972 360.14450612 382.75 349.8125 C383.26828369 349.2968045 383.78656738 348.78110901 384.32055664 348.24978638 C389.61876722 342.97245886 394.83416388 337.67018052 399.69873047 331.98388672 C401.2549225 330.18179969 402.8573852 328.43771108 404.48828125 326.703125 C404.99810547 326.16042969 405.50792969 325.61773438 406.03320312 325.05859375 C407.06973338 323.9598452 408.10888288 322.86356276 409.15039062 321.76953125 C411.70790796 319.0384564 413.68385841 316.57587033 415.25 313.1875 C401.07647931 304.56106011 386.73793896 296.27337549 372.25 288.1875 C370.60862061 287.26710938 370.60862061 287.26710938 368.93408203 286.328125 C350.82483763 276.18179248 332.50652812 266.49767286 314 257.09619141 C310.69105318 255.41456282 307.39170168 253.71482211 304.09375 252.01171875 C287.88046853 243.69920608 271.24728685 236.35911739 254.55566406 229.07128906 C251.87167146 227.89901997 249.19081437 226.72030055 246.51464844 225.53027344 C170.21105742 191.61038751 88.88652021 169.51242218 -28.75 161.9375 C-29.75723114 161.93682526 -30.76446228 161.93615051 -31.80221558 161.93545532 C-84.37147628 161.99100616 -137.1010337 171.30820553 -184.75 194.1875 Z " fill="#0079FF" transform="translate(777.75,1297.8125)"/>
<path d="M0 0 C14.20478375 11.89907972 19.89815516 26.13631824 21.578125 44.1171875 C21.79429534 46.57538138 22.00285908 49.03410856 22.20898438 51.49316406 C25.25212951 87.438571 38.1226796 119.71163383 62 147 C62.45632813 147.52335937 62.91265625 148.04671875 63.3828125 148.5859375 C70.04961014 156.17966957 76.99140005 162.7974938 85 169 C85.78632812 169.65226562 86.57265625 170.30453125 87.3828125 170.9765625 C154.21403503 226.33840031 249.69050124 237.13948168 333.17987061 229.80859375 C395.87069983 223.87491631 457.45417284 205.51018312 514 178 C514.75297363 177.63600098 515.50594727 177.27200195 516.28173828 176.89697266 C520.1694511 175.01054523 524.02795858 173.07358359 527.86914062 171.09423828 C530.30810223 169.84178343 532.75597867 168.60747688 535.203125 167.37109375 C558.47954623 155.51937494 580.4757292 141.7729467 602 127 C602.680625 126.53287598 603.36125 126.06575195 604.0625 125.58447266 C619.20087938 115.12381988 633.9307727 103.85803903 648 92 C649.06372749 91.11058786 650.1275343 90.22127059 651.19140625 89.33203125 C657.14719969 84.33754808 663.00523704 79.25612241 668.7578125 74.02734375 C670.71208424 72.26032801 672.69059737 70.53086471 674.6875 68.8125 C685.51914652 59.32945769 695.8112512 49.28919076 706 39.125 C706.49436554 38.63322266 706.98873108 38.14144531 707.49807739 37.63476562 C712.64863162 32.50550485 717.70390783 27.33656023 722.43554688 21.81396484 C725.45771461 18.3097972 728.64941736 14.95862197 731.8125 11.58203125 C734.37659878 8.82628591 736.82198609 6.07308812 739 3 C744.06493624 4.74617762 748.44734085 7.54319749 753 10.3125 C753.87648193 10.84230469 754.75296387 11.37210938 755.65600586 11.91796875 C771.88976087 21.75433413 787.97538627 31.82733548 804 42 C805.33297119 42.84546387 805.33297119 42.84546387 806.69287109 43.70800781 C828.77406892 57.71713349 850.66773164 72.00058316 872.51702881 86.36767578 C875.14591931 88.09592847 877.77531765 89.8234066 880.40478516 91.55078125 C922.77536319 119.38868305 922.77536319 119.38868305 939.33813477 130.85620117 C940.88207371 131.91883581 942.4405016 132.9603344 944 134 C942.61370756 137.12324544 941.00488429 139.24190707 938.5859375 141.64453125 C937.56693359 142.66063477 937.56693359 142.66063477 936.52734375 143.69726562 C935.81707031 144.39529297 935.10679687 145.09332031 934.375 145.8125 C933.68792969 146.49892578 933.00085937 147.18535156 932.29296875 147.89257812 C928.27971641 151.87194747 924.15797926 155.67084475 919.87988281 159.36303711 C917.08374547 161.79785541 914.39118973 164.33866324 911.6875 166.875 C906.8189425 171.40901694 901.80667836 175.68492781 896.6171875 179.8515625 C893.98158387 182.01511772 891.45576625 184.2638956 888.9375 186.5625 C884.12509075 190.9367307 879.11800125 194.99077664 874 199 C873.00871094 199.78632812 872.01742187 200.57265625 870.99609375 201.3828125 C867.34610206 204.27502998 863.6765243 207.14160801 860 210 C859.21657227 210.6094043 858.43314453 211.21880859 857.62597656 211.84667969 C846.76056599 220.27420317 835.75516027 228.37272264 824.34765625 236.05078125 C820.50327365 238.64077807 816.74553112 241.33255774 813 244.0625 C804.59922581 250.12600619 795.81432999 255.5632366 787 261 C785.44007324 261.96583008 785.44007324 261.96583008 783.84863281 262.95117188 C715.58717443 305.13320141 642.33656348 339.04782786 205.83496094 382.02734375 C128.13405998 363.40477674 50.66573508 323.81508892 -1.9765625 262.359375 C-3.51683186 260.56338525 -5.07798346 258.78528118 -6.6484375 257.015625 C-57.83855081 198.98645085 -90.7140083 116.89337519 -86 39 C-84.57747832 23.56300544 -77.39673903 11.48316718 -66.03125 1.22265625 C-46.8254139 -14.2443388 -19.94549966 -13.79021193 0 0 Z " fill="#0C6BFF" transform="translate(454,1608)"/>
<path d="M0 0 C0.66 0.33 1.32 0.66 2 1 C0.21475351 2.19713017 -1.5784028 3.38247279 -3.375 4.5625 C-4.87160156 5.55443359 -4.87160156 5.55443359 -6.3984375 6.56640625 C-7.25695313 7.03949219 -8.11546875 7.51257812 -9 8 C-9.66 7.67 -10.32 7.34 -11 7 C-7.54143152 4.05004453 -4.19978515 1.77324262 0 0 Z " fill="#1575FF" transform="translate(1242,1866)"/>
</svg>
