<?xml version="1.0" standalone="no"?><!DOCTYPE svg PUBLIC "-//W3C//DTD SVG 1.1//EN" "http://www.w3.org/Graphics/SVG/1.1/DTD/svg11.dtd"><svg t="1770802325998" class="icon" viewBox="0 0 1705 1024" version="1.1" xmlns="http://www.w3.org/2000/svg" p-id="5903" xmlns:xlink="http://www.w3.org/1999/xlink" width="333.0078125" height="200"><path d="M335.538038 2.6304c-47.763422 5.970428-95.526844 45.545834-111.135247 91.006377-10.405603 28.402178-197.024115 832.448209-197.877034 846.947818-1.705836 42.134161 22.517042 73.009802 62.433616 80.771358 14.755486 3.411673 488.722155 3.411673 504.330559 0 45.204667-8.529182 87.679996-43.839998 103.373692-86.741785 5.970428-16.290739 198.729951-835.77459 198.729951-849.506574 2.558755-38.637197-20.811205-70.451047-58.169024-81.624276-8.614474-1.705836-481.728226-3.411673-501.686513-0.852918z" fill="#E60012" p-id="5904"></path><path d="M777.34969 2.6304c-47.763422 5.970428-95.526844 45.545834-111.135248 91.006377-9.552684 28.402178-197.024115 832.448209-197.024115 846.947818-1.705836 42.134161 22.602334 73.009802 62.518908 80.771358 14.755486 3.411673 488.722155 3.411673 504.330559 0 45.204667-8.529182 87.679996-43.839998 103.2884-86.741785 6.05572-16.290739 198.729951-835.77459 198.729951-849.506574 2.644047-38.637197-20.811205-70.451047-58.083733-81.624276-9.552684-1.705836-482.666436-3.411673-502.624722-0.852918z" fill="#00508E" p-id="5905"></path><path d="M1238.26671 2.6304c-47.763422 5.970428-95.526844 45.545834-111.049955 91.006377-9.552684 28.402178-197.024115 832.448209-197.024115 846.947818-1.791128 42.134161 22.517042 73.009802 62.433615 80.771358 14.755486 3.411673 367.181305 3.411673 382.789709 0 45.204667-8.529182 87.679996-43.839998 103.2884-86.741785 6.141011-16.290739 198.815243-835.77459 198.815243-849.506574 2.558755-38.637197-20.811205-70.451047-58.169024-81.624276-8.699766-2.558755-404.453832-4.264591-424.497412-1.705836h43.498831v0.852918z" fill="#00908C" p-id="5906"></path><path d="M320.697261 263.793967c0 0.852918-0.852918 5.970428-2.558755 11.087937-19.958287 67.039374-39.916574 157.192833-37.272527 168.366062 6.908638 33.519687 56.377896 30.960932 73.777428-4.264591 5.117509-9.382101 42.475329-166.660225 42.475329-177.833455 0-0.852918 59.021943 0 59.021942 0.852919 0 0 0 2.558755-0.852918 5.117509-0.852918 2.644047-10.405603 38.722488-20.811205 81.709568-23.455252 91.006377-26.014007 100.473769-38.210738 118.555636-39.916574 58.339608-173.568863 56.633772-183.974465-2.558754-2.644047-12.964357 26.014007-161.542716 39.063655-201.971041 0-2.558755 69.427545-0.852918 69.427545 0.852918z m887.20556 0c39.916574 8.529182 52.028013 40.343033 33.860854 87.594704-18.25245 47.251671-57.316106 67.807001-125.890733 67.807-20.811205 0-19.105369-3.411673-32.069726 60.983655-2.558755 12.026147-5.202801 23.199376-5.202802 24.905213-0.852918 4.264591-62.518907 4.264591-61.665989 0 52.028013-220.735242 56.463188-239.670027 56.463188-241.375864l0.852918-2.558755h62.433616c49.469258 0.852918 63.371826 0.852918 71.218674 2.558755z m-535.632659 85.035949c8.699766 1.705836 14.840777 8.529182 14.840777 14.49961 0 21.578832-44.351749 36.163734-60.813071 19.787704-15.608404-16.290739 17.399532-41.195951 46.057586-34.287314z m-153.525285 16.205447c0 1.791128-0.93821 5.202801-0.93821 7.846848l-0.852918 3.411673 10.405603-5.11751c27.805135-13.817276 54.67206-11.258521 63.371825 5.970428 5.117509 10.235019 4.264591 16.290739-9.552684 79.833148-2.558755 11.173229-6.05572 26.696341-6.908638 34.372605-3.496965 17.228949-0.852918 16.37603-32.155018 16.37603-26.952217 0-26.952217 0-26.014006-2.558754 0-1.705836 3.411673-15.523112 6.908638-31.813851 13.902567-60.983655 14.755486-69.598129 2.558754-69.598129-6.823346 0-16.461322 4.264591-17.31424 6.823346-1.705836 6.05572-17.399532 80.771358-18.25245 87.679996l-1.705837 7.676264-26.952216 1.705837c-32.922644 0.852918-30.36389 3.411673-23.36996-25.67284 9.552684-37.86957 14.755486-64.480619 18.167158-88.532914 4.349883-25.758131 1.705836-23.199376 26.099299-26.611049 11.258521-1.705836 22.517042-3.411673 26.014006-4.264591 8.699766-2.558755 10.405603-1.705836 10.405603 2.558755z m412.215389-0.852918c0 1.705836-0.852918 5.202801-0.852918 7.761556l-0.852918 4.264591 10.405602-5.11751c53.819141-27.463968 74.630347-5.117509 59.021943 65.333538-3.411673 15.43782-7.761556 37.784278-10.405603 48.104589-1.705836 11.087937-4.264591 20.55533-5.117509 21.49354-3.582257 3.411673-54.757351 2.558755-53.904433 0 0-1.705836 3.411673-15.523112 6.993929-30.960932 14.755486-62.689491 14.755486-70.451047 1.705837-70.451048-10.405603 0-15.608404 3.411673-17.399533 11.173229-2.558755 9.382101-15.608404 71.303965-17.31424 82.477195l-1.705836 9.382101-26.952217 0.852918c-33.007936 0.852918-30.36389 4.349883-22.602334-27.463968 8.699766-34.287314 14.755486-66.101164 19.105369-89.30054 3.411673-22.346458 0.852918-19.787703 22.602334-23.199376 9.552684-1.705836 21.664123-3.411673 26.014006-4.264592 8.699766-4.264591 11.258521-3.411673 11.258521 0z m526.932893-0.852919c3.411673 52.454472 4.349883 67.892292 4.349883 68.745211 0 0.852918 7.846848-12.793774 16.461322-30.022722 17.399532-34.372605 13.902567-30.960932 33.007936-33.519687 5.202801-0.852918 15.608404-2.558755 23.455252-4.264592 19.105369-3.411673 19.105369-5.117509-2.558755 32.666769-29.596263 50.663344-70.365755 121.967309-85.121241 147.72544-44.266457 79.833148-44.266457 79.833148-81.624276 80.686067l-22.517042 0.852918 1.705837-5.970428c0.852918-3.411673 3.411673-10.235019 4.349883-15.43782l2.558754-9.467393h6.99393c7.846848 0 9.552684-1.705836 16.461322-13.731983 2.558755-4.264591 6.99393-11.173229 8.699766-15.523113 2.558755-4.264591 11.258521-17.996575 18.252451-31.728558l13.902567-24.052295-3.496965-31.81385c-4.264591-36.93136-9.552684-80.686066-12.111439-93.565132-1.705836-12.026147-1.705836-12.026147 13.817276-13.817276 6.99393-0.852918 18.25245-3.411673 24.30817-4.264591 16.546614-5.117509 18.25245-5.117509 19.105369-3.411673z m-654.529463 0.852919c66.868791 12.111439 43.498831 127.170111-29.510971 143.54614-49.469258 11.087937-83.330113-7.761556-83.330113-45.545834 0.852918-66.186456 50.322177-109.173536 112.841084-97.915015z m500.065968 3.496964c3.411673 1.705836 8.614474 5.117509 11.258521 7.676265 4.264591 4.349883 4.264591 4.349883 4.264591 1.705836 0.93821-3.411673 0-3.411673 34.799065-8.529182 27.805135-4.264591 26.866925-4.264591 25.161088 3.411673a6071.498537 6071.498537 0 0 0-25.161088 110.879372c-6.05572 30.875641-1.705836 27.463968-35.566691 26.611049h-28.658053v-3.411673c0-3.411673-1.705836-5.117509-3.411673-2.558755-9.637976 15.352528-56.463188 9.382101-69.512837-9.467392-32.155018-48.104589 36.419609-149.516569 86.827077-126.231901z m-623.312654 24.905213s0 4.264591-0.852919 7.676264c-6.908638 27.549259-19.105369 83.415405-21.664123 93.735716l-2.644047 12.793773-28.658053 0.852919c-33.860854 0.852918-32.069726 2.558755-25.161088-17.911284 6.05572-19.787703 12.196731-43.839998 15.608404-69.68342 3.411673-22.261166 0-18.849493 25.161088-22.261167 11.343813-1.705836 23.455252-3.411673 26.099299-4.264591 6.908638-1.705836 11.258521-1.705836 12.111439-0.852918z m151.904739 177.833455c0 0.852918-1.705836 4.264591-4.264591 8.529182-1.791128 4.264591-4.435175 7.761556-4.435175 7.761556 51.175095 0.852918 52.966223 0.852918 52.113305 3.411673l-9.552684 30.960932h-74.630347l-4.349883 3.411673c-9.552684 8.614474-59.874861 19.787703-59.874861 12.879066l9.552685-30.875641h6.908637c12.196731 0 14.755486-2.558755 25.161089-20.640621l8.699766-16.290739c45.204667-0.852918 54.67206 0 54.672059 0.852919z m113.779294 0c0 0.852918-0.852918 5.117509-2.644046 10.235018-1.705836 4.349883-2.558755 8.614474-2.558755 9.467393 0 0 4.264591-1.705836 9.467393-5.970428 19.105369-12.879066 35.651983-15.43782 84.268322-15.43782 19.020077 0 35.566691 0 36.41961 0.852918 0.852918 1.705836-27.805135 94.503342-32.155018 103.032524a43.669414 43.669414 0 0 1-21.664124 21.49354l-8.699766 3.411673-49.469258 0.852919-49.469258 0.852918-8.699767 29.255096c-17.31424 55.780853-17.31424 51.516262 7.846848 48.957507 19.958287-1.705836 19.105369-3.411673 13.049649 17.143657l-5.288093 17.228948h-25.161088c-54.586768 0.852918-61.580697-2.558755-56.377896-24.905213 2.558755-11.173229 65.077662-215.617733 65.93058-217.323569 0.852918-0.852918 45.204667-0.852918 45.204667 0.852919z m228.240923 0c0 0.852918-0.852918 3.411673-1.705836 6.823346-2.558755 8.614474-2.558755 8.614474 8.699766 2.558754 14.755486-7.676264 49.469258-10.235019 120.60264-10.235019h22.602333v10.235019c0 12.111439 0.852918 12.964357 11.258521 14.670194l7.846848 0.852918-4.349883 15.437821-4.349883 15.43782h-15.608404c-39.916574 0.852918-46.057585-3.411673-46.910503-26.611049v-11.087938l-2.558755 7.676265-2.558755 8.529182h-8.785058c-4.264591 0-8.614474 0-8.614474 0.852918l-48.61634 159.83688c-0.852918 1.705836 0 2.558755 5.117509 2.558754 7.846848 0 7.846848 0 5.288093 6.823346-2.558755 7.761556-2.558755 7.761556 6.05572 7.761556a23.881711 23.881711 0 0 0 13.902567-3.411673c6.05572-3.411673 6.05572-2.558755 33.860855-41.195951l11.258521-16.37603h-23.455252c-28.658053 0-26.014007 1.705836-20.811205-15.43782l4.264591-13.731984h57.401398c5.117509-18.081867 6.908638-23.199376 6.908638-24.052295 0-0.852918-12.111439-0.852918-27.805135-0.852918H1245.26064l8.614474-30.960932h78.127311c42.645912 0 78.127311 0 78.127312 0.852918s-1.705836 7.761556-4.264591 15.523112l-4.349883 14.49961-26.099299 0.852918-26.014006 0.93821c-4.264591 12.879066-6.05572 18.934785-6.908638 20.640622l-0.852918 3.411673h25.161088c29.510971 0 27.719843-1.705836 21.664123 15.43782l-4.264591 13.731984h-57.401398l-8.614474 10.320311h22.517042l3.411673 20.640621c3.582257 23.199376 3.582257 23.199376 14.840777 23.199377 8.699766 0 8.699766-1.705836 2.558755 18.849493l-5.11751 17.228949h-16.546614c-28.658053 0-33.860854-4.264591-39.063655-33.519688l-2.558755-18.934785-10.490895 13.817276c-28.572761 38.637197-30.36389 39.490115-66.783498 39.490115-23.455252 0-23.455252 0-19.958287-6.823346 0.852918-3.411673 0.852918-3.411673-6.141012-3.411673-6.908638 0-6.908638 0-8.614474 5.117509l-0.852918 5.11751h-48.61634l0.852918-2.558755c2.558755-8.614474 6.908638-7.676264-46.057585-7.676264-46.057585 0-48.61634 0-47.763422-2.644047l4.349883-15.43782c5.202801-15.523112 4.349883-15.523112 9.552684-15.523112 4.349883 0 4.349883 0 6.141012-5.970428l55.524978-183.803882 3.411673-11.173229h24.393461c15.608404 0 26.866925 0.852918 26.866925 1.705837z m-308.159362 73.86272l-9.552685 30.022722h-52.028013a251.696175 251.696175 0 0 1-7.846847 24.052295c-0.852918 2.558755 0.852918 2.558755 26.014006 2.558754 14.755486 0 26.952217 0.852918 26.952217 0.852918 0 0.852918-0.852918 2.558755-1.705837 5.202802-0.852918 1.705836-2.644047 8.529182-4.349883 15.43782l-3.496965 11.173229h-53.819141l-6.05572 20.640622c-8.699766 29.169804-7.846848 30.022722 25.161089 25.758131 13.902567-1.705836 12.964357-3.411673 6.908637 17.228948l-5.117509 17.143657h-36.504901c-57.316106 0-58.169024-1.705836-42.645912-50.663344 4.435175-15.43782 8.785058-28.402178 8.785058-28.402177s-6.141011-0.852918-14.755486-0.852919c-7.846848 0-14.755486 0-14.755486-0.852918 5.970428-21.408248 8.614474-28.316886 8.614475-30.022722 0.852918-1.705836 2.644047-2.558755 15.693695-2.558755h14.755486l6.908638-26.696341h-13.902568c-10.405603 0-13.902567 0-13.902567-1.705837s7.846848-26.611049 8.699766-29.169804c1.705836-1.705836 132.799371-0.852918 131.946453 0.852919z m168.451353 61.836573c0 1.705836-1.705836 6.823346-2.558754 11.173229-5.288093 24.052295-12.196731 29.169804-40.087158 30.960932l-18.167158 1.705836a68.574627 68.574627 0 0 0 0 26.61105l2.558754 3.411673 17.399532-0.852919c9.552684-0.852918 17.399532-0.852918 17.399533-0.852918 0 1.705836-9.552684 31.813851-10.405603 32.666769-1.705836 1.705836-54.67206 0.852918-61.665989-1.705836-10.405603-3.411673-10.405603-2.558755-9.552684-56.719064l0.852918-47.251671h44.351749v17.996575h8.614474c9.552684 0 10.405603-0.852918 14.755486-12.793773l2.558754-6.908638h17.399532c15.608404 0.852918 17.399532 0.852918 16.546614 2.558755z m81.538985-367.607765l-9.552685 41.195952h13.04965c66.868791 1.705836 94.673925-74.715638 29.510971-79.91844l-20.811205-1.705837c-2.558755 0-2.558755 2.558755-12.196731 40.428325z m-345.43189 58.4249c-16.546614 6.823346-32.155018 68.659919-19.105369 78.127312 9.552684 7.676264 23.455252-5.117509 30.36389-26.61105 11.258521-39.575407 7.846848-58.4249-11.258521-51.516262z m517.294916 4.264591c-17.31424 8.529182-30.36389 69.598129-17.31424 76.421475 17.31424 9.382101 39.916574-23.199376 39.916574-58.4249 0-16.290739-9.552684-24.052295-22.602334-17.996575z m-350.634691 204.444504l-4.349883 15.43782c-2.558755 7.676264-4.349883 14.584902-5.202801 15.437821 0 0.852918 4.264591-0.852918 10.405603-4.264592 17.31424-8.529182 22.517042-10.235019 47.763421-11.173229l21.664124-0.852918c3.411673-10.235019 4.349883-14.584902 4.349883-15.43782 0.852918-0.852918-73.777428-0.852918-74.630347 0.852918z m-14.755485 49.810426l-3.496965 13.731983 74.630346-0.852918 4.349884-13.731984c-59.021943 0-75.483265 0-75.483265 0.852919z m236.08777-30.960933c-3.411673 11.173229-6.05572 19.787703-5.202801 19.787704l10.405603-3.411673c5.202801-1.705836 14.755486-4.264591 19.958287-5.11751 5.202801-0.852918 9.552684-1.705836 10.405602-1.705836 0 0 8.699766-26.696341 8.699766-27.54926 0 0-8.699766-0.852918-19.105368-0.852918h-19.105369l-6.05572 18.849493z m-13.902567 43.839998c0 0.852918-3.411673 9.382101-6.05572 19.787704-3.411673 10.235019-6.05572 19.702411-6.055719 19.702411 0 0.852918 4.264591-0.852918 10.405602-3.411673 6.05572-2.558755 14.755486-5.117509 19.958287-5.970428 11.258521-1.705836 12.111439-2.558755 13.04965-6.908637 0.852918-1.705836 2.558755-8.529182 4.264591-13.731984l3.496965-10.320311h-19.105369c-10.405603 0-19.958287 0-19.958287 0.852918z m-30.36389 98.767933l38.210738 0.852918c7.761556-25.758131 10.405603-34.372605 10.405602-35.225523l-38.210737-1.705837-10.405603 36.078442z" fill="#FFFFFF" p-id="5907"></path></svg>