<?xml version="1.0" encoding="UTF-8"?>
<svg version="1.1" xmlns="http://www.w3.org/2000/svg" width="192" height="192">
<path d="M0 0 C12.9043306 10.17325534 18.39480356 25.86648453 20.6640625 41.62109375 C21 45 21 45 21.0234375 48.34765625 C21.15370323 60.11065126 25.45346238 69.54128056 29.90478516 80.27490234 C34.7809141 92.40761551 41.34772308 108.95683077 37 122 C33.18029444 121.7427992 31.44623563 121.43653486 28.6640625 118.71484375 C27.99117188 117.79832031 27.31828125 116.88179688 26.625 115.9375 C25.93664062 115.01839844 25.24828125 114.09929687 24.5390625 113.15234375 C24.03117187 112.44207031 23.52328125 111.73179687 23 111 C22.70867187 111.76183594 22.41734375 112.52367187 22.1171875 113.30859375 C18.65042587 122.04090842 14.80649285 129.44234668 8 136 C8.77085937 136.40992188 9.54171875 136.81984375 10.3359375 137.2421875 C11.33882813 137.78101563 12.34171875 138.31984375 13.375 138.875 C14.37273437 139.40867188 15.37046875 139.94234375 16.3984375 140.4921875 C19 142 19 142 21 144 C20.625 146.625 20.625 146.625 20 149 C6.44936916 152.08469645 -7.41864601 151.35863453 -21.1875 150.4375 C-27.68306396 150.00370634 -33.96599256 150.12072229 -40.45458984 150.58691406 C-53.34295777 151.48686484 -66.33223624 151.88371858 -79 149 C-79.33 147.35 -79.66 145.7 -80 144 C-75.98745115 140.48901975 -71.79016959 138.23462006 -67 136 C-67.77923828 135.21689453 -67.77923828 135.21689453 -68.57421875 134.41796875 C-75.50875726 127.09889021 -78.91245377 119.4990724 -82 110 C-82.55429688 110.69867188 -83.10859375 111.39734375 -83.6796875 112.1171875 C-84.76636719 113.48230469 -84.76636719 113.48230469 -85.875 114.875 C-86.59429687 115.77992188 -87.31359375 116.68484375 -88.0546875 117.6171875 C-90 120 -90 120 -92 122 C-93.32 122 -94.64 122 -96 122 C-101.0646043 106.80618711 -91.65952666 84.94890179 -85.28125 71.203125 C-80.90544022 61.55060343 -80.11477032 52.8262163 -79.40625 42.3359375 C-78.20764922 25.07009328 -70.84721115 10.73089621 -57.98828125 -0.8046875 C-41.55827461 -13.3853783 -16.33959224 -11.22547886 0 0 Z " fill="#0BB2FE" transform="translate(125,25)"/>
<path d="M0 0 C1.06025399 10.24912186 1.06025399 10.24912186 -1.27734375 14.109375 C-3.08751779 15.89902553 -5.00519272 17.4196742 -7 19 C-13.73561701 24.59082464 -19.86112138 30.77348274 -26 37 C-31.64666812 42.72727997 -37.27037117 48.41893888 -43.4230957 53.61132812 C-45.18489673 55.10235457 -45.18489673 55.10235457 -47.1875 57.5 C-49 59 -49 59 -51.25390625 58.9609375 C-55.06581645 57.62704005 -57.16685332 55.09120843 -59.75 52.125 C-60.53769775 51.24642334 -60.53769775 51.24642334 -61.34130859 50.35009766 C-65.2848565 45.9167575 -69.04995688 41.34597139 -72.75390625 36.7109375 C-76.03847825 32.74660191 -79.57431003 29.03481689 -83.12890625 25.3125 C-85 23 -85 23 -85 20 C-81.13190225 20.65162125 -78.40103286 22.48760158 -75.1328125 24.59765625 C-73.98857546 25.32403138 -72.84403464 26.04992815 -71.69921875 26.77539062 C-69.90954469 27.91768876 -68.12277956 29.06393967 -66.34130859 30.21899414 C-64.61257228 31.33653452 -62.87374937 32.43675017 -61.1328125 33.53515625 C-60.10043457 34.199104 -59.06805664 34.86305176 -58.00439453 35.54711914 C-54.65989789 37.16446836 -52.66685788 37.43094372 -49 37 C-45.9437275 35.21837342 -45.9437275 35.21837342 -43 32.6875 C-42.44094971 32.23673096 -41.88189941 31.78596191 -41.3059082 31.3215332 C-40.12359173 30.36814767 -38.94567863 29.40927853 -37.77197266 28.4453125 C-35.50994867 26.60028881 -33.20723553 24.81107218 -30.90185547 23.02075195 C-24.29947518 17.88608964 -17.80358022 12.62117412 -11.32885742 7.3269043 C-2.35938347 0 -2.35938347 0 0 0 Z " fill="#F8FC6C" transform="translate(146,71)"/>
</svg>
